<svg width="164" height="76" fill="none" xmlns="http://www.w3.org/2000/svg"><path d="M2.48 25.703c0-8.469 5.505-11.856 12.28-11.856 6.835 0 12.339 3.932 12.339 12.098v3.206h-8.408v-3.025c0-3.327-1.512-4.839-3.932-4.839-2.238 0-3.81 1.391-3.81 3.992 0 3.025 1.814 4.598 4.597 6.654l5.202 3.81c3.871 2.904 6.956 6.534 6.956 12.401 0 8.408-5.807 12.642-12.884 12.642S1.996 56.431 1.996 48.628v-3.75h8.469v3.327c0 3.206 1.754 5.141 4.355 5.141 2.661 0 4.355-1.572 4.355-4.173 0-3.267-1.936-5.082-4.84-7.26l-4.96-3.689C5.385 35.321 2.48 31.752 2.48 25.703Zm41.093 35.083c-8.831 0-14.215-5.202-14.215-15.787V29.574c0-10.525 5.384-15.727 14.215-15.727 8.832 0 14.215 5.202 14.215 15.727V45c0 10.585-5.383 15.787-14.215 15.787Zm0-7.742c3.388 0 5.444-1.936 5.444-7.864V29.453c0-5.928-2.056-7.863-5.444-7.863-3.327 0-5.444 1.935-5.444 7.863V45.18c0 5.928 2.057 7.864 5.444 7.864Zm46.293-38.41V60H76.438l-7.501-39.318V60h-7.5V14.633h13.488l7.44 38.774V14.633h7.501ZM90.946 60l8.226-45.367h13.429L120.888 60h-8.65l-1.513-9.255h-9.678L99.535 60h-8.59Zm11.371-16.816h7.138l-3.569-21.897-3.569 21.897ZM121.902 60V14.633h14.396c7.622 0 13.066 4.114 13.066 11.796v1.754c0 6.23-3.569 9.92-8.771 11.25L150.634 60h-9.981l-10.041-22.32V60h-8.71Zm13.428-37.806h-4.718v12.159h4.718c3.267 0 5.323-1.755 5.323-5.989v-.786c0-3.932-2.056-5.384-5.323-5.384ZM156.233 28.231c-3.549 0-6.129-2.823-6.129-6.21 0-3.441 2.58-6.21 6.129-6.21 3.549 0 6.13 2.769 6.13 6.21 0 3.387-2.581 6.21-6.13 6.21Zm0-11.453c-2.93 0-5.081 2.34-5.081 5.243 0 2.903 2.151 5.242 5.081 5.242 2.931 0 5.081-2.339 5.081-5.242 0-2.877-2.15-5.243-5.081-5.243Zm-2.419 8.469v-6.452h2.742c1.263 0 2.258.484 2.258 1.962 0 .941-.645 1.64-1.559 1.882l1.882 2.608h-1.775l-1.72-2.527h-.43v2.527h-1.398Zm2.715-5.216h-1.317v1.479h1.317c.538 0 .914-.269.914-.753 0-.564-.376-.726-.914-.726Z" fill="#E6E5DD"/></svg>